<?xml version="1.0" standalone="no"?>
<!DOCTYPE svg PUBLIC "-//W3C//DTD SVG 20010904//EN"
 "http://www.w3.org/TR/2001/REC-SVG-20010904/DTD/svg10.dtd">
<svg version="1.0" xmlns="http://www.w3.org/2000/svg"
 width="1024.000000pt" height="1024.000000pt" viewBox="0 0 1024.000000 1024.000000"
 preserveAspectRatio="xMidYMid meet">
<metadata>
Created by potrace 1.14, written by Peter Selinger 2001-2017
</metadata>
<g transform="translate(0.000000,1024.000000) scale(0.100000,-0.100000)"
fill="#000000" stroke="none">
<path d="M4848 10235 c-2 -1 -48 -5 -103 -9 -116 -8 -172 -13 -235 -22 -25 -3
-56 -7 -70 -9 -14 -1 -44 -6 -68 -10 -23 -4 -52 -8 -65 -9 -12 -2 -36 -6 -52
-10 -17 -4 -46 -8 -65 -11 -43 -5 -83 -13 -135 -27 -22 -5 -51 -12 -65 -14
-115 -20 -564 -154 -685 -205 -16 -7 -32 -13 -35 -14 -143 -49 -485 -212 -690
-330 -235 -134 -532 -339 -710 -488 -238 -200 -481 -438 -635 -622 -27 -33
-52 -62 -55 -65 -36 -30 -351 -464 -396 -545 -6 -11 -36 -60 -66 -110 -169
-279 -325 -614 -439 -943 -101 -292 -190 -662 -225 -927 -3 -27 -8 -58 -9 -67
-2 -9 -7 -48 -10 -85 -4 -37 -9 -76 -11 -87 -25 -135 -25 -780 1 -1011 1 -16
6 -55 9 -85 3 -30 8 -64 10 -75 2 -11 7 -47 11 -80 4 -32 8 -67 10 -76 6 -28
17 -93 20 -114 7 -47 38 -189 66 -300 17 -66 33 -129 35 -140 2 -11 27 -92 55
-180 169 -529 433 -1043 765 -1491 94 -128 85 -117 200 -254 99 -118 157 -181
295 -319 158 -159 261 -251 444 -399 132 -106 520 -372 544 -372 6 0 11 -4 11
-10 0 -5 4 -10 10 -10 5 0 31 -13 57 -29 254 -154 696 -348 1018 -446 132 -41
369 -106 400 -110 11 -2 76 -14 145 -28 69 -14 161 -31 205 -37 44 -6 91 -13
105 -15 14 -3 54 -7 90 -10 36 -4 72 -8 80 -10 101 -26 789 -26 1018 0 20 2
60 7 87 10 80 9 128 15 155 20 14 3 43 7 65 11 312 44 725 157 1055 287 105
42 144 58 280 119 76 34 303 150 380 195 123 71 323 197 375 236 5 4 66 48
135 99 369 270 720 612 1006 979 32 42 66 87 74 99 8 12 21 28 28 36 6 7 12
17 12 22 0 6 4 12 9 14 21 8 243 359 333 528 56 104 158 307 158 314 0 3 13
34 29 68 96 210 225 583 272 788 6 25 13 54 15 65 3 11 7 31 10 45 3 14 9 39
14 55 5 17 11 47 15 69 3 21 7 41 9 45 2 3 7 28 10 55 4 27 9 52 11 55 1 3 6
31 10 61 4 30 10 75 15 100 4 25 8 52 8 60 0 14 8 81 17 145 26 182 26 899 0
1030 -2 11 -7 47 -10 80 -9 85 -14 127 -19 150 -3 11 -8 43 -11 70 -14 114
-98 493 -135 610 -86 270 -133 401 -231 635 -87 210 -362 702 -472 845 -4 6
-47 64 -95 130 -230 312 -508 613 -783 846 -29 24 -57 49 -63 55 -18 17 -238
188 -290 224 -58 41 -78 55 -137 94 -24 16 -77 51 -117 77 -41 27 -76 49 -78
49 -2 0 -23 12 -47 27 -40 25 -327 183 -333 183 -1 0 -51 23 -111 51 -202 95
-472 198 -719 273 -75 23 -363 94 -408 100 -21 4 -41 8 -45 10 -3 2 -31 7 -61
11 -30 4 -57 8 -60 10 -5 3 -55 11 -117 19 -52 7 -118 17 -143 21 -14 2 -63 7
-110 11 -46 3 -96 8 -110 11 -28 4 -657 13 -662 8z"/>
</g>
</svg>
